# xmcd
#
# Track frame offsets:
# 150
# 12046
# 26384
# 39969
# 53061
# 67864
# 80476
# 93380
# 107268
# 120352
# 132494
# 145874
# 156530
# 167772
# 179736
# 192020
# 204999
# 218154
# 228704
# 240729
#
# Disc length: 3369 seconds
#
#
# Revision: 0
# Processed by: cddbd v1.5.2PL0 Copyright (c) Steve Scherf et al.
# Submitted via: FreeRIP 2.944 
#
DISCID=070d2714
DTITLE=T-Bone Walker - Presenting T-Bone Walker
DYEAR=1900
DGENRE=Blues
TTITLE0=Bobby Sox Blues
TTITLE1=Born To Be No Good
TTITLE2=Call It Stormy Monday
TTITLE3=First Love Blues
TTITLE4=I Got A Break, Baby
TTITLE5=Hypin' Woman Blues
TTITLE6=I Wish You Were Mine
TTITLE7=I'm Still In Love With You
TTITLE8=Mean Old World
TTITLE9=T-Bone Jumps Again
TTITLE10=T-Bone Shuffle
TTITLE11=I'm About To Lose My Mind
TTITLE12=Lonesome Woman Blues
TTITLE13=She's My Old Time Used To Be
TTITLE14=Too Much Trouble Blues
TTITLE15=On Your Way Blues
TTITLE16=I Got The Blues
TTITLE17=News For You Baby
TTITLE18=Baby Broke My Heart
TTITLE19=Railroad Station Blues
EXTD=
EXTT0=
EXTT1=
EXTT2=
EXTT3=
EXTT4=
EXTT5=
EXTT6=
EXTT7=
EXTT8=
EXTT9=
EXTT10=
EXTT11=
EXTT12=
EXTT13=
EXTT14=
EXTT15=
EXTT16=
EXTT17=
EXTT18=
EXTT19=
PLAYORDER=
